Coordinates
version=1
nRows=38
nColumns=12
inDegrees=yes

Units are S.I. units (second, meters, Newtons, ...)
Angles are in degrees

endheader
time	SC_y	SC_z	SC_x	AC_y	AC_z	AC_x	GH_y	GH_z	GH_yy	EL_x	PS_y
       0.0              -54.17          20.56          14.92          51.37          9.216         -15.34         -40.63           66.3          79.95          132.0          134.4
  0.002602              -54.17          20.56          14.93          51.37          9.213         -15.34         -40.63          66.29          79.92          132.0          134.4
  0.005204              -54.17          20.55          14.93          51.37          9.209         -15.34         -40.64          66.28          79.89          132.0          134.4
  0.007806              -54.17          20.55          14.93          51.37          9.205         -15.34         -40.65          66.28          79.85          132.0          134.4
   0.01041              -54.17          20.55          14.93          51.37          9.202         -15.34         -40.65          66.27          79.81          132.0          134.4
   0.01301              -54.18          20.54          14.93          51.37          9.197         -15.34         -40.66          66.26          79.77          132.0          134.4
   0.01561              -54.18          20.54          14.93          51.37          9.193         -15.34         -40.67          66.25          79.73          132.0          134.3
   0.01821              -54.18          20.53          14.93          51.37          9.188         -15.34         -40.68          66.24          79.68          131.9          134.3
   0.02082              -54.18          20.53          14.93          51.37          9.183         -15.33         -40.69          66.23          79.63          131.9          134.3
   0.02342              -54.18          20.52          14.93          51.37          9.178         -15.33          -40.7          66.22          79.58          131.9          134.3
   0.02602              -54.18          20.51          14.94          51.37          9.172         -15.33         -40.71           66.2          79.52          131.9          134.3
   0.02862              -54.18          20.51          14.94          51.36          9.166         -15.33         -40.72          66.19          79.46          131.9          134.3
   0.03122              -54.18           20.5          14.94          51.36          9.159         -15.33         -40.74          66.18           79.4          131.9          134.3
   0.03383              -54.18          20.49          14.94          51.36          9.152         -15.33         -40.75          66.16          79.33          131.9          134.2
   0.03643              -54.18          20.49          14.94          51.36          9.144         -15.33         -40.77          66.14          79.25          131.9          134.2
   0.03903              -54.18          20.48          14.95          51.36          9.135         -15.33         -40.78          66.13          79.16          131.9          134.2
   0.04163              -54.18          20.47          14.95          51.36          9.126         -15.33          -40.8          66.11          79.07          131.8          134.2
   0.04423              -54.18          20.46          14.95          51.36          9.115         -15.33         -40.82          66.08          78.97          131.8          134.1
   0.04684              -54.19          20.44          14.95          51.36          9.104         -15.33         -40.84          66.06          78.87          131.8          134.1
   0.04944              -54.19          20.43          14.96          51.36          9.092         -15.33         -40.87          66.04          78.75          131.8          134.1
   0.05204              -54.19          20.42          14.96          51.36          9.079         -15.32         -40.89          66.01          78.62          131.8          134.1
   0.05464              -54.19           20.4          14.97          51.36          9.064         -15.32         -40.92          65.98          78.47          131.8          134.0
   0.05724              -54.19          20.38          14.97          51.36          9.048         -15.32         -40.95          65.94          78.32          131.7          134.0
   0.05985              -54.19          20.37          14.97          51.36           9.03         -15.32         -40.99           65.9          78.14          131.7          133.9
   0.06245               -54.2          20.34          14.98          51.36           9.01         -15.32         -41.03          65.86          77.95          131.7          133.9
   0.06505               -54.2          20.32          14.99          51.36          8.988         -15.31         -41.07          65.81          77.73          131.6          133.8
   0.06765               -54.2          20.29          14.99          51.36          8.963         -15.31         -41.12          65.76          77.49          131.6          133.8
   0.07026               -54.2          20.27           15.0          51.35          8.934         -15.31         -41.17           65.7          77.21          131.6          133.7
   0.07286              -54.21          20.23          15.01          51.35          8.903         -15.31         -41.24          65.63           76.9          131.5          133.6
   0.07546              -54.21          20.19          15.02          51.35          8.866          -15.3         -41.31          65.56          76.55          131.5          133.5
   0.07806              -54.22          20.15          15.03          51.35          8.825          -15.3         -41.39          65.47          76.15          131.4          133.4
   0.08066              -54.22           20.1          15.04          51.35          8.778         -15.29         -41.48          65.37          75.69          131.3          133.3
   0.08327              -54.23          20.04          15.06          51.34          8.723         -15.29         -41.58          65.25          75.16          131.2          133.1
   0.08587              -54.23          19.98          15.07          51.34           8.66         -15.28         -41.71          65.12          74.54          131.1          133.0
   0.08847              -54.24           19.9          15.09          51.34          8.586         -15.27         -41.85          64.96          73.82          131.0          132.8
   0.09107              -54.25          19.81          15.12          51.33          8.498         -15.27         -42.02          64.77          72.97          130.9          132.6
   0.09367              -54.26           19.7          15.15          51.33          8.394         -15.25         -42.22          64.55          71.96          130.7          132.3
   0.09628              -54.27          19.57          15.18          51.32           8.27         -15.24         -42.47          64.29          70.75          130.5          132.0
